<?xml version="1.0" encoding="utf-8"?>
<?xml-stylesheet type="text/xsl" href="rss1.xsl"?>
<rss version="2.0" xmlns:atom="http://www.w3.org/2005/Atom" xmlns:content="http://purl.org/rss/1.0/modules/content/" xmlns:dc="http://purl.org/dc/elements/1.1/" xmlns:media="http://search.yahoo.com/mrss/">
<channel>
 <title>Getty</title>
 <link>http://www.gettyimg.com/</link>
 <atom:link href="http://www.gettyimg.com/" rel="self" type="application/rss+xml" />

 
                <item>
                <title><![CDATA[【Apple Music】WEB-RiP - Cristina Vasiu - Buna, ce faci (1080p)]]></title>
                <link><![CDATA[https://sharemania.us/threads/cristina-vasiu-buna-ce-faci-1080p.249010/]]></link>
                <description><![CDATA[<article>
<blockquote class="messageText SelectQuoteContainer ugc baseHtml">
<img src="https://i.postimg.cc/ht5VcnkV/Cristina-Vasiu-Buna-ce-faci-mp4.jpg" class="bbCodeImage LbImage" alt="[​IMG]" data-url="https://i.postimg.cc/ht5VcnkV/Cristina-Vasiu-Buna-ce-faci-mp4.jpg" style=""><br>
<br>
<div class="bbCodeBlock bbCodeCode">
<div class="type">Code:</div>
<pre>General
Complete name                  : G:\Новая папка\Cristina Vasiu - Buna, ce faci.mp4
Format                         : MPEG-4
Format profile                 : Base Media
Codec ID                       : isom (isom/iso2/avc1/mp41)
File size                      : 167 MiB
Duration                       : 3 min 25 s
Overall bit rate               : 6 833 kb/s
Frame rate                     : 25.000 FPS
Movie name                     : Buna, ce faci?
Performer                      : Cristina Vasiu
Genre                          : Pop
ContentType                    : Music Video
Recorded date                  : 2021-10-07 07:00:00 UTC
Writing application            : Lavf56.30.100
Copyright                      : ℗ 2021 Cat Music

Video
ID                             : 1
Format                         : AVC
Format/Info                    : Advanced Video Codec
Format profile                 : High@L4
Format settings                : CABAC / 4 Ref Frames
Format settings, CABAC         : Yes
Format settings, Reference fra : 4 frames
Format settings, Slice count   : 8 slices per frame
Codec ID                       : avc1
Codec ID/Info                  : Advanced Video Coding
Duration                       : 3 min 25 s
Bit rate                       : 6 567 kb/s
Width                          : 1 920 pixels
Height                         : 1 008 pixels
Display aspect ratio           : 1.905
Frame rate mode                : Constant
Frame rate                     : 25.000 FPS
Color space                    : YUV
Chroma subsampling             : 4:2:0
Bit depth                      : 8 bits
Scan type                      : Progressive
Bits/(Pixel*Frame)             : 0.136
Stream size                    : 161 MiB (96%)
Color range                    : Limited
Color primaries                : BT.709
Transfer characteristics       : BT.709
Matrix coefficients            : BT.709
Codec configuration box        : avcC

Audio
ID                             : 2
Format                         : AAC LC
Format/Info                    : Advanced Audio Codec Low Complexity
Codec ID                       : mp4a-40-2
Duration                       : 3 min 25 s
Duration_LastFrame             : -12 ms
Bit rate mode                  : Constant
Bit rate                       : 265 kb/s
Channel(s)                     : 2 channels
Channel layout                 : L R
Sampling rate                  : 48.0 kHz
Frame rate                     : 46.875 FPS (1024 SPF)
Compression mode               : Lossy
Stream size                    : 6.39 MiB (4%)
Default                        : Yes
Alternate group                : 1

</pre>
</div>
<div class="bbCodeBlock bbCodeVfcHH HiddenContent">
<div class="attribution type">Hidden Content:</div>
<blockquote>You must either reply or click 'Like' to see the hidden information contained here.</blockquote>
</div>
<div class="messageTextEndMarker">&nbsp;</div>
</blockquote>
</article>]]></description>
                <author><![CDATA[vitalya3]]></author>
                </item>

                
                <item>
                <title><![CDATA[【Singles (lossless)】ALAC - Iggy Azalea - Team (24 Bit / 44.1Khz)]]></title>
                <link><![CDATA[https://sharemania.us/threads/iggy-azalea-team-24-bit-44-1khz.249009/]]></link>
                <description><![CDATA[<article>
<blockquote class="messageText SelectQuoteContainer ugc baseHtml">
<div style="text-align: center"><img src="https://s8.krakenfiles.com/uploads/06-07-2024/GzZoAVDYb8/cover.png" class="bbCodeImage LbImage" alt="[​IMG]" data-url="https://s8.krakenfiles.com/uploads/06-07-2024/GzZoAVDYb8/cover.png" style=""><br>
<div class="bbCodeBlock bbCodeVfcHH HiddenContent">
<div class="attribution type">Hidden Content:</div>
<blockquote>You must reply before you can see the hidden data contained here.</blockquote>
</div></div>
<div class="messageTextEndMarker">&nbsp;</div>
</blockquote>
</article>]]></description>
                <author><![CDATA[ifuseekme]]></author>
                </item>

                
                <item>
                <title><![CDATA[【Apple Music】WEB-RiP - Pitbull - Wild Wild Love (feat. G.R.L.) (1080p)]]></title>
                <link><![CDATA[https://sharemania.us/threads/pitbull-wild-wild-love-feat-g-r-l-1080p.249012/]]></link>
                <description><![CDATA[<article>
<blockquote class="messageText SelectQuoteContainer ugc baseHtml">
Thanks! <img src="styles/default/xenforo/smilies/big_smile-48.png" class="mceSmilie" alt=":)" title="Smile    :)">
<div class="messageTextEndMarker">&nbsp;</div>
</blockquote>
</article>]]></description>
                <author><![CDATA[vitalya3]]></author>
                </item>

                
                <item>
                <title><![CDATA[【SD】Amanda Palmer - Astronaut (DVD-Rip, 2008)]]></title>
                <link><![CDATA[https://sharemania.us/threads/amanda-palmer-astronaut-dvd-rip-2008.249011/]]></link>
                <description><![CDATA[<article>
<blockquote class="messageText SelectQuoteContainer ugc baseHtml">
<img src="https://i.postimg.cc/zvzk3j0h/Pitbull-Wild-Wild-Love-feat-G-R-L-mp4.jpg" class="bbCodeImage LbImage" alt="[​IMG]" data-url="https://i.postimg.cc/zvzk3j0h/Pitbull-Wild-Wild-Love-feat-G-R-L-mp4.jpg" style=""><br>
<br>
<div class="bbCodeBlock bbCodeCode">
<div class="type">Code:</div>
<pre>General
Complete name                  : G:\Новая папка\Pitbull - Wild Wild Love (feat. G.R.L.).mp4
Format                         : MPEG-4
Format profile                 : Base Media
Codec ID                       : isom (isom/iso2/avc1/mp41)
File size                      : 285 MiB
Duration                       : 3 min 57 s
Overall bit rate               : 10.1 Mb/s
Frame rate                     : 23.976 FPS
Movie name                     : Wild Wild Love (feat. G.R.L.)
Performer                      : Pitbull
Genre                          : Pop
ContentType                    : Music Video
Recorded date                  : 2014-03-31 07:00:00 UTC
Writing application            : Lavf56.30.100
Copyright                      : ℗ (C) 2014 RCA Records, a division of Sony Music Entertainment

Video
ID                             : 1
Format                         : AVC
Format/Info                    : Advanced Video Codec
Format profile                 : High@L4
Format settings                : CABAC / 4 Ref Frames
Format settings, CABAC         : Yes
Format settings, Reference fra : 4 frames
Format settings, Slice count   : 8 slices per frame
Codec ID                       : avc1
Codec ID/Info                  : Advanced Video Coding
Duration                       : 3 min 57 s
Bit rate                       : 9 842 kb/s
Width                          : 1 920 pixels
Height                         : 1 080 pixels
Display aspect ratio           : 16:9
Frame rate mode                : Constant
Frame rate                     : 23.976 (23976/1000) FPS
Color space                    : YUV
Chroma subsampling             : 4:2:0
Bit depth                      : 8 bits
Scan type                      : Progressive
Bits/(Pixel*Frame)             : 0.198
Stream size                    : 278 MiB (98%)
Language                       : English
Color range                    : Limited
Color primaries                : BT.709
Transfer characteristics       : BT.709
Matrix coefficients            : BT.709
Codec configuration box        : avcC

Audio
ID                             : 2
Format                         : AAC LC
Format/Info                    : Advanced Audio Codec Low Complexity
Codec ID                       : mp4a-40-2
Duration                       : 3 min 57 s
Duration_LastFrame             : -8 ms
Bit rate mode                  : Constant
Bit rate                       : 244 kb/s
Channel(s)                     : 2 channels
Channel layout                 : L R
Sampling rate                  : 48.0 kHz
Frame rate                     : 46.875 FPS (1024 SPF)
Compression mode               : Lossy
Stream size                    : 6.90 MiB (2%)
Default                        : Yes
Alternate group                : 1

</pre>
</div>
<div class="bbCodeBlock bbCodeVfcHH HiddenContent">
<div class="attribution type">Hidden Content:</div>
<blockquote>You must either reply or click 'Like' to see the hidden information contained here.</blockquote>
</div>
<div class="messageTextEndMarker">&nbsp;</div>
</blockquote>
</article>]]></description>
                <author><![CDATA[fritching]]></author>
                </item>

                
                <item>
                <title><![CDATA[【Apple Music】WEB-RiP - Lidia Buble - Ma certi (feat. Adrian Sina) (1080p)]]></title>
                <link><![CDATA[https://sharemania.us/threads/lidia-buble-ma-certi-feat-adrian-sina-1080p.249008/]]></link>
                <description><![CDATA[<article>
<blockquote class="messageText SelectQuoteContainer ugc baseHtml">
Amanda Palmer - Astronaut (DVD-Rip, 2008)<br>
<br>
<img src="https://images2.imgbox.com/cb/e0/DvQ6Jp77_o.jpg" class="bbCodeImage LbImage" alt="[​IMG]" data-url="https://images2.imgbox.com/cb/e0/DvQ6Jp77_o.jpg" style=""> <br>
<br>
<span data-s9e-mediaembed="youtube" style="display:inline-block;width:100%;max-width:640px"><span style="display:block;overflow:hidden;position:relative;padding-bottom:56.25%"><iframe allowfullscreen="" loading="lazy" scrolling="no" style="background:url(https://i.ytimg.com/vi/Z8B2nBM0jFg/hqdefault.jpg) 50% 50% / cover;border:0;height:100%;left:0;position:absolute;width:100%" src="https://www.youtube.com/embed/Z8B2nBM0jFg"></iframe></span></span><br>
<br>
<div class="bbCodeBlock bbCodeVfcHH HiddenContent">
<div class="attribution type">Hidden Content:</div>
<blockquote>You must reply before you can see the hidden data contained here.</blockquote>
</div>Not exactly mainstream, is it? But indeed rare.<br>
<br>
Greets, 3rsin.
<div class="messageTextEndMarker">&nbsp;</div>
</blockquote>
</article>]]></description>
                <author><![CDATA[vitalya3]]></author>
                </item>

                </channel></rss>